<svg width="1440" height="320" viewBox="0 0 1440 320" fill="none" xmlns="http://www.w3.org/2000/svg">
<rect width="1440" height="320" fill="white"/>
<path d="M178.42 132.431H176.388V134.468H180.452V132.431H186.549V130.395H190.614V128.358H194.678V132.431H192.646V134.468H186.549V136.505H182.484V138.542H178.42V140.578H180.452V142.615H182.484V144.652H184.517V146.688H186.549V150.762H182.484V148.725H180.452V146.688H178.42V144.652H176.388V142.615H174.355V140.578H176.388V134.468H174.355V128.358H176.388V122.248H178.42V118.175H182.484V122.248H180.452V128.358H178.42V132.431ZM172.323 132.431V136.505H166.226V134.468H164.194V132.431H162.161V130.395H160.129V126.321H164.194V128.358H166.226V130.395H168.258V132.431H172.323ZM170.291 142.615H166.226V144.652H160.129V146.688H156.065V148.725H154.032V146.688H152V144.652H154.032V142.615H160.129V140.578H164.194V138.542H170.291V142.615ZM170.291 142.615H174.355V144.652H172.323V148.725H170.291V154.835H168.258V158.908H164.194V154.835H166.226V150.762H168.258V144.652H170.291V142.615Z" fill="#F6441C"/>
<path d="M178.412 189.458V187.422H180.444V185.385H186.541V183.348H188.573V181.312H190.606V177.238H192.638V171.128H194.67V167.055H196.703V160.945H198.735V156.872H200.767V150.762H202.799V144.652H204.832V140.578H206.864V134.468H208.896V130.395H210.929V122.248H204.832V120.211H202.799V118.175H233.284V120.211H231.252V122.248H225.155V124.285H223.122V126.321H221.09V130.395H219.058V134.468H217.026V140.578H214.993V146.688H212.961V150.762H210.929V154.835H208.896V156.872H206.864V158.908H208.896V156.872H210.929V154.835H214.993V152.798H217.026V150.762H219.058V148.725H223.122V146.688H225.155V144.652H227.187V142.615H231.252V140.578H233.284V138.542H235.316V136.505H239.381V134.468H241.413V132.431H243.445V130.395H247.51V128.358H249.542V126.321H251.575V122.248H247.51V118.175H269.865V122.248H263.768V124.285H259.704V126.321H255.639V128.358H253.607V130.395H249.542V132.431H247.51V134.468H245.478V136.505H241.413V138.542H239.381V140.578H237.349V142.615H233.284V144.652H231.252V146.688H229.219V150.762H231.252V156.872H233.284V162.982H235.316V167.055H237.349V173.165H239.381V177.238H241.413V183.348H243.445V185.385H247.51V189.458H231.252V185.385H229.219V179.275H227.187V173.165H225.155V167.055H223.122V162.982H221.09V156.872H219.058V154.835H217.026V156.872H214.993V158.908H212.961V160.945H208.896V162.982H206.864V167.055H204.832V173.165H202.799V177.238H200.767V185.385H206.864V187.422H208.896V189.458H178.412Z" fill="#1C1C1C"/>
<path d="M282.027 187.422V189.458H265.769V187.422H261.704V185.385H259.672V183.348H257.64V177.238H255.607V169.092H257.64V160.945H259.672V156.872H261.704V152.798H263.737V150.762H265.769V148.725H267.801V146.688H269.834V144.652H273.898V142.615H277.963V140.578H290.156V142.615H294.221V144.652H296.253V146.688H298.286V148.725H300.318V156.872H302.35V160.945H300.318V169.092H298.286V175.202H296.253V177.238H294.221V179.275H292.189V183.348H288.124V185.385H286.092V187.422H282.027ZM267.801 185.385H279.995V183.348H282.027V181.312H284.06V179.275H286.092V175.202H288.124V171.128H290.156V162.982H292.189V150.762H290.156V146.688H288.124V144.652H279.995V146.688H277.963V148.725H273.898V152.798H271.866V154.835H269.834V160.945H267.801V167.055H265.769V181.312H267.801V185.385Z" fill="#1C1C1C"/>
<path d="M312.512 187.422V189.458H304.383V185.385H306.415V181.312H308.447V175.202H310.479V171.128H312.512V165.018H314.544V158.908H316.576V154.835H318.609V146.688H316.576V144.652H314.544V142.615H324.705V140.578H330.802V146.688H328.77V150.762H326.738V152.798H324.705V156.872H322.673V158.908H324.705V156.872H326.738V152.798H328.77V150.762H330.802V148.725H332.835V146.688H334.867V144.652H338.932V142.615H340.964V140.578H351.125V142.615H353.158V144.652H355.19V150.762H353.158V154.835H351.125V156.872H353.158V154.835H355.19V152.798H357.222V150.762H359.255V146.688H363.319V144.652H365.351V142.615H369.416V140.578H377.545V142.615H381.61V154.835H379.578V158.908H377.545V165.018H375.513V169.092H373.481V175.202H371.448V179.275H369.416V183.348H375.513V181.312H379.578V179.275H381.61V177.238H383.642V179.275H381.61V181.312H379.578V183.348H377.545V185.385H375.513V187.422H371.448V189.458H361.287V177.238H363.319V173.165H365.351V167.055H367.384V162.982H369.416V156.872H371.448V152.798H373.481V148.725H371.448V146.688H365.351V148.725H363.319V150.762H359.255V152.798H357.222V156.872H355.19V158.908H353.158V160.945H351.125V162.982H349.093V169.092H347.061V173.165H345.028V179.275H342.996V185.385H340.964V189.458H330.802V187.422H332.835V183.348H334.867V177.238H336.899V173.165H338.932V167.055H340.964V160.945H342.996V156.872H345.028V146.688H338.932V148.725H334.867V150.762H332.835V152.798H330.802V154.835H328.77V156.872H326.738V160.945H324.705V162.982H322.673V167.055H320.641V173.165H318.609V177.238H316.576V183.348H314.544V187.422H312.512Z" fill="#1C1C1C"/>
<path d="M393.784 187.422V189.458H385.655V185.385H387.687V181.312H389.719V175.202H391.751V171.128H393.784V165.018H395.816V158.908H397.848V154.835H399.881V146.688H397.848V144.652H395.816V142.615H405.977V140.578H412.074V146.688H410.042V150.762H408.01V152.798H405.977V156.872H403.945V158.908H405.977V156.872H408.01V152.798H410.042V150.762H412.074V148.725H414.107V146.688H416.139V144.652H420.204V142.615H422.236V140.578H432.397V142.615H434.43V144.652H436.462V150.762H434.43V154.835H432.397V156.872H434.43V154.835H436.462V152.798H438.494V150.762H440.527V146.688H444.591V144.652H446.623V142.615H450.688V140.578H458.817V142.615H462.882V154.835H460.849V158.908H458.817V165.018H456.785V169.092H454.753V175.202H452.72V179.275H450.688V183.348H456.785V181.312H460.849V179.275H462.882V177.238H464.914V179.275H462.882V181.312H460.849V183.348H458.817V185.385H456.785V187.422H452.72V189.458H442.559V177.238H444.591V173.165H446.623V167.055H448.656V162.982H450.688V156.872H452.72V152.798H454.753V148.725H452.72V146.688H446.623V148.725H444.591V150.762H440.527V152.798H438.494V156.872H436.462V158.908H434.43V160.945H432.397V162.982H430.365V169.092H428.333V173.165H426.3V179.275H424.268V185.385H422.236V189.458H412.074V187.422H414.107V183.348H416.139V177.238H418.171V173.165H420.204V167.055H422.236V160.945H424.268V156.872H426.3V146.688H420.204V148.725H416.139V150.762H414.107V152.798H412.074V154.835H410.042V156.872H408.01V160.945H405.977V162.982H403.945V167.055H401.913V173.165H399.881V177.238H397.848V183.348H395.816V187.422H393.784Z" fill="#1C1C1C"/>
<path d="M495.379 187.422V189.458H479.12V187.422H475.056V185.385H473.023V183.348H470.991V177.238H468.959V169.092H470.991V160.945H473.023V156.872H475.056V152.798H477.088V150.762H479.12V148.725H481.153V146.688H483.185V144.652H487.249V142.615H491.314V140.578H503.508V142.615H507.572V144.652H509.605V146.688H511.637V148.725H513.669V156.872H515.702V160.945H513.669V169.092H511.637V175.202H509.605V177.238H507.572V179.275H505.54V183.348H501.476V185.385H499.443V187.422H495.379ZM481.153 185.385H493.346V183.348H495.379V181.312H497.411V179.275H499.443V175.202H501.476V171.128H503.508V162.982H505.54V150.762H503.508V146.688H501.476V144.652H493.346V146.688H491.314V148.725H487.249V152.798H485.217V154.835H483.185V160.945H481.153V167.055H479.12V181.312H481.153V185.385Z" fill="#1C1C1C"/>
<path d="M570.574 128.358V122.248H568.541V120.211H566.509V118.175H578.703V116.138H582.767V120.211H580.735V124.285H578.703V130.395H576.671V136.505H574.638V140.578H572.606V146.688H570.574V150.762H568.541V156.872H566.509V160.945H564.477V167.055H562.444V171.128H560.412V177.238H558.38V183.348H564.477V181.312H566.509V179.275H568.541V177.238H570.574V179.275H568.541V181.312H566.509V185.385H562.444V187.422H560.412V189.458H550.251V187.422H548.218V183.348H550.251V179.275H552.283V177.238H550.251V179.275H548.218V181.312H546.186V183.348H544.154V185.385H542.122V187.422H538.057V189.458H525.863V187.422H523.831V185.385H521.799V181.312H519.766V167.055H521.799V162.982H523.831V158.908H525.863V154.835H527.895V152.798H529.928V150.762H531.96V148.725H533.992V146.688H536.025V144.652H540.089V142.615H544.154V140.578H556.348V142.615H560.412V144.652H564.477V138.542H566.509V134.468H568.541V128.358H570.574ZM531.96 183.348H542.122V181.312H544.154V179.275H546.186V177.238H548.218V175.202H550.251V173.165H552.283V169.092H554.315V165.018H556.348V158.908H558.38V154.835H560.412V148.725H558.38V146.688H556.348V144.652H546.186V146.688H544.154V148.725H540.089V150.762H538.057V154.835H536.025V156.872H533.992V160.945H531.96V167.055H529.928V181.312H531.96V183.348ZM554.315 173.165H552.283V175.202H554.315V173.165Z" fill="#1C1C1C"/>
<path d="M596.95 130.395V126.321H598.982V122.248H601.014V120.211H611.176V122.248H609.144V126.321H607.111V130.395H596.95ZM588.821 187.422V189.458H578.659V187.422H576.627V179.275H578.659V175.202H580.691V169.092H582.724V165.018H584.756V158.908H586.788V154.835H588.821V146.688H586.788V144.652H584.756V142.615H594.918V140.578H601.014V146.688H598.982V150.762H596.95V154.835H594.918V160.945H592.885V167.055H590.853V171.128H588.821V177.238H586.788V183.348H592.885V185.385H590.853V187.422H588.821ZM594.918 183.348H592.885V181.312H594.918V179.275H596.95V177.238H598.982V179.275H596.95V181.312H594.918V183.348Z" fill="#1C1C1C"/>
<path d="M629.494 146.688V148.725H627.462V152.798H625.43V158.908H623.397V162.982H621.365V169.092H619.333V175.202H617.301V181.312H619.333V183.348H623.397V181.312H627.462V179.275H629.494V181.312H627.462V183.348H625.43V185.385H623.397V187.422H621.365V189.458H609.171V187.422H607.139V177.238H609.171V171.128H611.204V167.055H613.236V160.945H615.268V156.872H617.301V150.762H619.333V144.652H613.236V142.615H617.301V140.578H621.365V138.542H623.397V136.505H625.43V134.468H627.462V132.431H631.527V130.395H633.559V128.358H635.591V132.431H633.559V136.505H631.527V140.578H643.72V144.652H625.43V146.688H629.494Z" fill="#1C1C1C"/>
<path d="M641.672 209.825V211.862H627.446V209.825H625.414V203.715H627.446V201.679H629.478V199.642H631.511V201.679H635.575V207.789H633.543V209.825H635.575V207.789H641.672V205.752H645.737V203.715H647.769V201.679H649.801V199.642H651.834V197.605H653.866V195.569H655.898V181.312H653.866V162.982H651.834V150.762H649.801V146.688H647.769V142.615H653.866V140.578H657.931V142.615H659.963V152.798H661.995V167.055H664.028V185.385H661.995V187.422H664.028V185.385H666.06V183.348H668.092V181.312H670.124V177.238H672.157V175.202H674.189V171.128H676.221V167.055H678.254V162.982H680.286V156.872H682.318V148.725H678.254V142.615H680.286V140.578H686.383V142.615H688.415V156.872H686.383V162.982H684.35V167.055H682.318V169.092H680.286V173.165H678.254V175.202H676.221V179.275H674.189V181.312H672.157V185.385H670.124V187.422H668.092V189.458H666.06V191.495H664.028V193.532H661.995V195.569H659.963V197.605H657.931V199.642H655.898V201.679H653.866V203.715H651.834V205.752H649.801V207.789H645.737V209.825H641.672Z" fill="#1C1C1C"/>
<path d="M854.182 118.909H856.364V123.273H862.909V118.909H865.091V132H862.909V125.455H856.364V132H854.182V118.909ZM858.545 114.545H860.727V116.727H858.545V114.545ZM856.364 116.727H858.545V118.909H856.364V116.727ZM860.727 116.727H862.909V118.909H860.727V116.727ZM893.472 129.818V132H886.926V129.818H893.472ZM886.926 129.818H884.744V127.636H886.926V129.818ZM893.472 118.909V121.091H886.926V118.909H893.472ZM884.744 121.091H886.926V123.273H884.744V121.091ZM886.926 123.273H893.472V125.455H886.926V123.273ZM893.472 125.455H895.653V129.818H893.472V125.455ZM893.472 121.091H895.653V123.273H893.472V121.091ZM904.389 121.091H900.026V118.909H906.571V129.818H910.935V132H900.026V129.818H904.389V121.091ZM904.389 114.545H906.571V116.727H904.389V114.545ZM915.307 118.909H917.489V121.091H919.67V123.273H917.489V132H915.307V118.909ZM919.67 118.909H924.034V121.091H919.67V118.909ZM924.034 121.091H926.216V132H924.034V121.091ZM932.77 118.909H937.134V121.091H932.77V118.909ZM930.588 121.091H932.77V129.818H930.588V121.091ZM932.77 129.818H937.134V132H932.77V129.818ZM932.77 134.182H939.315V136.364H932.77V134.182ZM937.134 127.636H939.315V123.273H937.134V121.091H939.315V118.909H941.497V134.182H939.315V129.818H937.134V127.636ZM950.233 116.727H945.869V114.545H952.415V129.818H956.778V132H945.869V129.818H950.233V116.727ZM963.332 118.909H969.878V121.091H963.332V118.909ZM961.151 121.091H963.332V123.273H969.878V121.091H972.06V125.455H963.332V129.818H961.151V121.091ZM963.332 129.818H969.878V132H963.332V129.818ZM969.878 127.636H972.06V129.818H969.878V127.636ZM991.713 114.545H993.895V121.091H996.077V123.273H993.895V127.636H996.077V129.818H993.895V132H991.713V114.545ZM996.077 129.818H1000.44V132H996.077V129.818ZM1000.44 121.091H1002.62V129.818H1000.44V121.091ZM996.077 118.909H1000.44V121.091H996.077V118.909ZM1011.36 121.091H1006.99V118.909H1013.54V129.818H1017.9V132H1006.99V129.818H1011.36V121.091ZM1011.36 114.545H1013.54V116.727H1011.36V114.545ZM1022.28 118.909H1024.46V121.091H1026.64V123.273H1024.46V132H1022.28V118.909ZM1026.64 118.909H1031V121.091H1026.64V118.909ZM1031 121.091H1033.18V132H1031V121.091ZM1037.56 125.455H1039.74V129.818H1037.56V125.455ZM1039.74 129.818H1044.1V132H1039.74V129.818ZM1044.1 127.636H1046.28V125.455H1039.74V123.273H1046.28V121.091H1048.47V132H1046.28V129.818H1044.1V127.636ZM1039.74 118.909H1046.28V121.091H1039.74V118.909ZM1057.2 118.909V121.091H1059.38V123.273H1057.2V129.818H1061.57V132H1052.84V129.818H1055.02V121.091H1052.84V118.909H1057.2ZM1063.75 118.909V121.091H1059.38V118.909H1063.75ZM1068.12 118.909H1070.3V125.455H1068.12V118.909ZM1076.85 118.909H1079.03V125.455H1076.85V118.909ZM1072.48 129.818H1074.66V134.182H1072.48V129.818ZM1072.48 134.182V136.364H1068.12V134.182H1072.48ZM1074.66 125.455H1076.85V129.818H1074.66V125.455ZM1070.3 125.455H1072.48V129.818H1070.3V125.455ZM1100.86 114.545H1103.05V118.909H1109.59V121.091H1103.05V129.818H1100.86V121.091H1098.68V118.909H1100.86V114.545ZM1103.05 129.818H1107.41V132H1103.05V129.818ZM1107.41 127.636H1109.59V129.818H1107.41V127.636ZM1116.14 118.909H1122.69V121.091H1116.14V118.909ZM1122.69 121.091H1124.87V129.818H1122.69V121.091ZM1113.96 121.091H1116.14V129.818H1113.96V121.091ZM1116.14 129.818H1122.69V132H1116.14V129.818ZM1144.53 118.909H1146.71V121.091H1148.89V123.273H1146.71V127.636H1148.89V129.818H1146.71V136.364H1144.53V118.909ZM1148.89 118.909H1153.25V121.091H1148.89V118.909ZM1153.25 121.091H1155.43V129.818H1153.25V121.091ZM1148.89 129.818H1153.25V132H1148.89V129.818ZM1161.99 118.909H1168.53V121.091H1161.99V118.909ZM1168.53 121.091H1170.72V129.818H1168.53V121.091ZM1159.81 121.091H1161.99V129.818H1159.81V121.091ZM1161.99 129.818H1168.53V132H1161.99V129.818ZM1175.09 118.909H1177.27V129.818H1175.09V118.909ZM1183.82 118.909H1186V132H1181.63V129.818H1183.82V118.909ZM1181.63 129.818H1179.45V118.909H1181.63V129.818ZM1177.27 129.818H1179.45V132H1177.27V129.818ZM1192.55 118.909H1199.1V121.091H1192.55V118.909ZM1190.37 121.091H1192.55V123.273H1199.1V121.091H1201.28V125.455H1192.55V129.818H1190.37V121.091ZM1192.55 129.818H1199.1V132H1192.55V129.818ZM1199.1 127.636H1201.28V129.818H1199.1V127.636ZM1210.01 118.909V121.091H1212.2V123.273H1210.01V129.818H1214.38V132H1205.65V129.818H1207.83V121.091H1205.65V118.909H1210.01ZM1216.56 118.909V121.091H1212.2V118.909H1216.56ZM856.364 145.545H858.545V149.909H865.091V152.091H858.545V160.818H856.364V152.091H854.182V149.909H856.364V145.545ZM858.545 160.818H862.909V163H858.545V160.818ZM862.909 158.636H865.091V160.818H862.909V158.636ZM869.463 145.545H871.645V152.091H873.827V154.273H871.645V163H869.463V145.545ZM878.19 152.091H880.372V163H878.19V152.091ZM873.827 149.909H878.19V152.091H873.827V149.909ZM886.926 149.909H893.472V152.091H886.926V149.909ZM884.744 152.091H886.926V154.273H893.472V152.091H895.653V156.455H886.926V160.818H884.744V152.091ZM886.926 160.818H893.472V163H886.926V160.818ZM893.472 158.636H895.653V160.818H893.472V158.636ZM924.034 160.818V163H917.489V160.818H924.034ZM917.489 160.818H915.307V158.636H917.489V160.818ZM924.034 149.909V152.091H917.489V149.909H924.034ZM915.307 152.091H917.489V154.273H915.307V152.091ZM917.489 154.273H924.034V156.455H917.489V154.273ZM924.034 156.455H926.216V160.818H924.034V156.455ZM924.034 152.091H926.216V154.273H924.034V152.091ZM932.77 149.909H939.315V152.091H932.77V149.909ZM939.315 152.091H941.497V160.818H939.315V152.091ZM930.588 152.091H932.77V160.818H930.588V152.091ZM932.77 160.818H939.315V163H932.77V160.818ZM945.869 149.909H948.051V156.455H945.869V149.909ZM954.597 149.909H956.778V156.455H954.597V149.909ZM950.233 160.818H948.051V156.455H950.233V160.818ZM950.233 160.818H952.415V163H950.233V160.818ZM952.415 156.455H954.597V160.818H952.415V156.455ZM963.332 149.909H969.878V152.091H963.332V149.909ZM961.151 152.091H963.332V154.273H969.878V152.091H972.06V156.455H963.332V160.818H961.151V152.091ZM963.332 160.818H969.878V163H963.332V160.818ZM969.878 158.636H972.06V160.818H969.878V158.636ZM980.795 149.909V152.091H982.977V154.273H980.795V160.818H985.159V163H976.432V160.818H978.614V152.091H976.432V149.909H980.795ZM987.341 149.909V152.091H982.977V149.909H987.341ZM993.895 149.909H1000.44V152.091H993.895V149.909ZM991.713 152.091H993.895V154.273H1000.44V152.091H1002.62V156.455H993.895V160.818H991.713V152.091ZM993.895 160.818H1000.44V163H993.895V160.818ZM1000.44 158.636H1002.62V160.818H1000.44V158.636ZM1011.36 152.091H1006.99V149.909H1013.54V160.818H1017.9V163H1006.99V160.818H1011.36V152.091ZM1011.36 145.545H1013.54V147.727H1011.36V145.545ZM1024.46 149.909H1028.82V152.091H1024.46V149.909ZM1022.28 152.091H1024.46V160.818H1022.28V152.091ZM1024.46 160.818H1028.82V163H1024.46V160.818ZM1024.46 165.182H1031V167.364H1024.46V165.182ZM1028.82 158.636H1031V154.273H1028.82V152.091H1031V149.909H1033.18V165.182H1031V160.818H1028.82V158.636ZM1037.56 149.909H1039.74V152.091H1041.92V154.273H1039.74V163H1037.56V149.909ZM1041.92 149.909H1046.28V152.091H1041.92V149.909ZM1046.28 152.091H1048.47V163H1046.28V152.091ZM1068.12 145.545H1070.3V152.091H1072.48V154.273H1070.3V158.636H1072.48V160.818H1070.3V163H1068.12V145.545ZM1072.48 160.818H1076.85V163H1072.48V160.818ZM1076.85 152.091H1079.03V160.818H1076.85V152.091ZM1072.48 149.909H1076.85V152.091H1072.48V149.909ZM1083.4 156.455H1085.58V160.818H1083.4V156.455ZM1085.58 160.818H1089.95V163H1085.58V160.818ZM1089.95 158.636H1092.13V156.455H1085.58V154.273H1092.13V152.091H1094.31V163H1092.13V160.818H1089.95V158.636ZM1085.58 149.909H1092.13V152.091H1085.58V149.909ZM1100.86 149.909H1107.41V152.091H1100.86V149.909ZM1098.68 152.091H1100.86V160.818H1098.68V152.091ZM1100.86 160.818H1107.41V163H1100.86V160.818ZM1107.41 152.091H1109.59V154.273H1107.41V152.091ZM1107.41 158.636H1109.59V160.818H1107.41V158.636ZM1113.96 145.545H1116.14V156.455H1118.33V154.273H1120.51V158.636H1116.14V163H1113.96V145.545ZM1122.69 149.909H1124.87V152.091H1122.69V149.909ZM1120.51 152.091H1122.69V154.273H1120.51V152.091ZM1120.51 158.636H1122.69V160.818H1120.51V158.636ZM1122.69 160.818H1124.87V163H1122.69V160.818ZM1129.24 145.545H1131.43V152.091H1133.61V154.273H1131.43V158.636H1133.61V160.818H1131.43V163H1129.24V145.545ZM1133.61 160.818H1137.97V163H1133.61V160.818ZM1137.97 152.091H1140.15V160.818H1137.97V152.091ZM1133.61 149.909H1137.97V152.091H1133.61V149.909ZM1146.71 149.909H1153.25V152.091H1146.71V149.909ZM1153.25 152.091H1155.43V160.818H1153.25V152.091ZM1144.53 152.091H1146.71V160.818H1144.53V152.091ZM1146.71 160.818H1153.25V163H1146.71V160.818ZM1159.81 149.909H1161.99V152.091H1164.17V154.273H1161.99V163H1159.81V149.909ZM1164.17 149.909H1168.53V152.091H1164.17V149.909ZM1168.53 152.091H1170.72V163H1168.53V152.091ZM1177.27 149.909H1183.82V152.091H1177.27V149.909ZM1175.09 152.091H1177.27V154.273H1183.82V152.091H1186V156.455H1177.27V160.818H1175.09V152.091ZM1177.27 160.818H1183.82V163H1177.27V160.818ZM1183.82 158.636H1186V160.818H1183.82V158.636ZM1207.83 149.909H1214.38V152.091H1207.83V149.909ZM1214.38 152.091H1216.56V160.818H1214.38V152.091ZM1205.65 152.091H1207.83V160.818H1205.65V152.091ZM1207.83 160.818H1214.38V163H1207.83V160.818ZM1223.11 152.091H1220.93V149.909H1223.11V147.727H1225.3V149.909H1231.84V152.091H1225.3V160.818H1229.66V163H1220.93V160.818H1223.11V152.091ZM1225.3 145.545H1231.84V147.727H1225.3V145.545ZM854.182 180.909H856.364V187.455H854.182V180.909ZM862.909 180.909H865.091V187.455H862.909V180.909ZM858.545 191.818H860.727V196.182H858.545V191.818ZM858.545 196.182V198.364H854.182V196.182H858.545ZM860.727 187.455H862.909V191.818H860.727V187.455ZM856.364 187.455H858.545V191.818H856.364V187.455ZM871.645 180.909H878.19V183.091H871.645V180.909ZM878.19 183.091H880.372V191.818H878.19V183.091ZM869.463 183.091H871.645V191.818H869.463V183.091ZM871.645 191.818H878.19V194H871.645V191.818ZM884.744 180.909H886.926V191.818H884.744V180.909ZM886.926 191.818H891.29V194H886.926V191.818ZM893.472 180.909H895.653V194H893.472V191.818H891.29V189.636H893.472V180.909ZM904.389 180.909V183.091H906.571V185.273H904.389V191.818H908.753V194H900.026V191.818H902.207V183.091H900.026V180.909H904.389ZM910.935 180.909V183.091H906.571V180.909H910.935ZM939.315 176.545H941.497V194H939.315V191.818H937.134V189.636H939.315V185.273H937.134V183.091H939.315V176.545ZM937.134 191.818V194H932.77V191.818H937.134ZM932.77 191.818H930.588V183.091H932.77V191.818ZM937.134 183.091H932.77V180.909H937.134V183.091ZM950.233 183.091H945.869V180.909H952.415V191.818H956.778V194H945.869V191.818H950.233V183.091ZM950.233 176.545H952.415V178.727H950.233V176.545ZM963.332 180.909H967.696V183.091H963.332V180.909ZM961.151 183.091H963.332V191.818H961.151V183.091ZM963.332 191.818H967.696V194H963.332V191.818ZM963.332 196.182H969.878V198.364H963.332V196.182ZM967.696 189.636H969.878V185.273H967.696V183.091H969.878V180.909H972.06V196.182H969.878V191.818H967.696V189.636ZM980.795 183.091H976.432V180.909H982.977V191.818H987.341V194H976.432V191.818H980.795V183.091ZM980.795 176.545H982.977V178.727H980.795V176.545ZM993.895 176.545H996.077V180.909H1002.62V183.091H996.077V191.818H993.895V183.091H991.713V180.909H993.895V176.545ZM996.077 191.818H1000.44V194H996.077V191.818ZM1000.44 189.636H1002.62V191.818H1000.44V189.636ZM1006.99 187.455H1009.18V191.818H1006.99V187.455ZM1009.18 191.818H1013.54V194H1009.18V191.818ZM1013.54 189.636H1015.72V187.455H1009.18V185.273H1015.72V183.091H1017.9V194H1015.72V191.818H1013.54V189.636ZM1009.18 180.909H1015.72V183.091H1009.18V180.909ZM1026.64 178.727H1022.28V176.545H1028.82V191.818H1033.18V194H1022.28V191.818H1026.64V178.727ZM1057.2 183.091H1052.84V180.909H1059.38V191.818H1063.75V194H1052.84V191.818H1057.2V183.091ZM1057.2 176.545H1059.38V178.727H1057.2V176.545ZM1068.12 180.909H1070.3V183.091H1072.48V185.273H1070.3V194H1068.12V180.909ZM1072.48 180.909H1076.85V183.091H1072.48V180.909ZM1076.85 183.091H1079.03V194H1076.85V183.091ZM1085.58 183.091H1083.4V180.909H1085.58V178.727H1087.76V180.909H1094.31V183.091H1087.76V191.818H1092.13V194H1083.4V191.818H1085.58V183.091ZM1087.76 176.545H1094.31V178.727H1087.76V176.545ZM1103.05 180.909V183.091H1105.23V185.273H1103.05V191.818H1107.41V194H1098.68V191.818H1100.86V183.091H1098.68V180.909H1103.05ZM1109.59 180.909V183.091H1105.23V180.909H1109.59ZM1113.96 187.455H1116.14V191.818H1113.96V187.455ZM1116.14 191.818H1120.51V194H1116.14V191.818ZM1120.51 189.636H1122.69V187.455H1116.14V185.273H1122.69V183.091H1124.87V194H1122.69V191.818H1120.51V189.636ZM1116.14 180.909H1122.69V183.091H1116.14V180.909ZM1137.97 191.818V194H1131.43V191.818H1137.97ZM1131.43 191.818H1129.24V189.636H1131.43V191.818ZM1137.97 180.909V183.091H1131.43V180.909H1137.97ZM1129.24 183.091H1131.43V185.273H1129.24V183.091ZM1131.43 185.273H1137.97V187.455H1131.43V185.273ZM1137.97 187.455H1140.15V191.818H1137.97V187.455ZM1137.97 183.091H1140.15V185.273H1137.97V183.091ZM1146.71 176.545H1148.89V180.909H1155.43V183.091H1148.89V191.818H1146.71V183.091H1144.53V180.909H1146.71V176.545ZM1148.89 191.818H1153.25V194H1148.89V191.818ZM1153.25 189.636H1155.43V191.818H1153.25V189.636ZM1164.17 180.909V183.091H1166.35V185.273H1164.17V191.818H1168.53V194H1159.81V191.818H1161.99V183.091H1159.81V180.909H1164.17ZM1170.72 180.909V183.091H1166.35V180.909H1170.72ZM1175.09 180.909H1177.27V191.818H1175.09V180.909ZM1177.27 191.818H1181.63V194H1177.27V191.818ZM1183.82 180.909H1186V194H1183.82V191.818H1181.63V189.636H1183.82V180.909ZM1192.55 180.909H1199.1V183.091H1192.55V180.909ZM1190.37 183.091H1192.55V191.818H1190.37V183.091ZM1192.55 191.818H1199.1V194H1192.55V191.818ZM1199.1 183.091H1201.28V185.273H1199.1V183.091ZM1199.1 189.636H1201.28V191.818H1199.1V189.636ZM1207.83 176.545H1210.01V180.909H1216.56V183.091H1210.01V191.818H1207.83V183.091H1205.65V180.909H1207.83V176.545ZM1210.01 191.818H1214.38V194H1210.01V191.818ZM1214.38 189.636H1216.56V191.818H1214.38V189.636ZM1220.93 180.909H1223.11V191.818H1220.93V180.909ZM1223.11 191.818H1227.48V194H1223.11V191.818ZM1229.66 180.909H1231.84V194H1229.66V191.818H1227.48V189.636H1229.66V180.909ZM1240.58 180.909V183.091H1242.76V185.273H1240.58V191.818H1244.94V194H1236.21V191.818H1238.39V183.091H1236.21V180.909H1240.58ZM1247.12 180.909V183.091H1242.76V180.909H1247.12ZM1253.68 180.909H1260.22V183.091H1253.68V180.909ZM1251.49 183.091H1253.68V185.273H1260.22V183.091H1262.4V187.455H1253.68V191.818H1251.49V183.091ZM1253.68 191.818H1260.22V194H1253.68V191.818ZM1260.22 189.636H1262.4V191.818H1260.22V189.636ZM1271.14 189.636H1273.32V194H1271.14V189.636Z" fill="#1C1C1C"/>
</svg>
