<svg width="1440" height="320" viewBox="0 0 1440 320" fill="none" xmlns="http://www.w3.org/2000/svg">
<rect width="1440" height="320" fill="#0D1117"/>
<path d="M178.42 137.432H176.388V139.468H180.452V137.432H186.549V135.395H190.614V133.358H194.678V137.432H192.646V139.468H186.549V141.505H182.484V143.542H178.42V145.578H180.452V147.615H182.484V149.652H184.517V151.688H186.549V155.762H182.484V153.725H180.452V151.688H178.42V149.652H176.388V147.615H174.355V145.578H176.388V139.468H174.355V133.358H176.388V127.248H178.42V123.175H182.484V127.248H180.452V133.358H178.42V137.432ZM172.323 137.432V141.505H166.226V139.468H164.194V137.432H162.161V135.395H160.129V131.322H164.194V133.358H166.226V135.395H168.258V137.432H172.323ZM170.291 147.615H166.226V149.652H160.129V151.688H156.065V153.725H154.032V151.688H152V149.652H154.032V147.615H160.129V145.578H164.194V143.542H170.291V147.615ZM170.291 147.615H174.355V149.652H172.323V153.725H170.291V159.835H168.258V163.908H164.194V159.835H166.226V155.762H168.258V149.652H170.291V147.615Z" fill="#F6441C"/>
<path d="M178.412 194.459V192.422H180.444V190.385H186.541V188.349H188.573V186.312H190.606V182.239H192.638V176.129H194.67V172.055H196.703V165.945H198.735V161.872H200.767V155.762H202.799V149.652H204.832V145.578H206.864V139.468H208.896V135.395H210.929V127.248H204.832V125.212H202.799V123.175H233.284V125.212H231.252V127.248H225.155V129.285H223.122V131.322H221.09V135.395H219.058V139.468H217.026V145.578H214.993V151.688H212.961V155.762H210.929V159.835H208.896V161.872H206.864V163.908H208.896V161.872H210.929V159.835H214.993V157.798H217.026V155.762H219.058V153.725H223.122V151.688H225.155V149.652H227.187V147.615H231.252V145.578H233.284V143.542H235.316V141.505H239.381V139.468H241.413V137.432H243.445V135.395H247.51V133.358H249.542V131.322H251.575V127.248H247.51V123.175H269.865V127.248H263.768V129.285H259.704V131.322H255.639V133.358H253.607V135.395H249.542V137.432H247.51V139.468H245.478V141.505H241.413V143.542H239.381V145.578H237.349V147.615H233.284V149.652H231.252V151.688H229.219V155.762H231.252V161.872H233.284V167.982H235.316V172.055H237.349V178.165H239.381V182.239H241.413V188.349H243.445V190.385H247.51V194.459H231.252V190.385H229.219V184.275H227.187V178.165H225.155V172.055H223.122V167.982H221.09V161.872H219.058V159.835H217.026V161.872H214.993V163.908H212.961V165.945H208.896V167.982H206.864V172.055H204.832V178.165H202.799V182.239H200.767V190.385H206.864V192.422H208.896V194.459H178.412Z" fill="white"/>
<path d="M282.027 192.422V194.459H265.769V192.422H261.704V190.385H259.672V188.349H257.64V182.239H255.607V174.092H257.64V165.945H259.672V161.872H261.704V157.798H263.737V155.762H265.769V153.725H267.801V151.688H269.834V149.652H273.898V147.615H277.963V145.578H290.156V147.615H294.221V149.652H296.253V151.688H298.286V153.725H300.318V161.872H302.35V165.945H300.318V174.092H298.286V180.202H296.253V182.239H294.221V184.275H292.189V188.349H288.124V190.385H286.092V192.422H282.027ZM267.801 190.385H279.995V188.349H282.027V186.312H284.06V184.275H286.092V180.202H288.124V176.129H290.156V167.982H292.189V155.762H290.156V151.688H288.124V149.652H279.995V151.688H277.963V153.725H273.898V157.798H271.866V159.835H269.834V165.945H267.801V172.055H265.769V186.312H267.801V190.385Z" fill="white"/>
<path d="M312.512 192.422V194.459H304.383V190.385H306.415V186.312H308.447V180.202H310.479V176.129H312.512V170.018H314.544V163.908H316.576V159.835H318.609V151.688H316.576V149.652H314.544V147.615H324.705V145.578H330.802V151.688H328.77V155.762H326.738V157.798H324.705V161.872H322.673V163.908H324.705V161.872H326.738V157.798H328.77V155.762H330.802V153.725H332.835V151.688H334.867V149.652H338.932V147.615H340.964V145.578H351.125V147.615H353.158V149.652H355.19V155.762H353.158V159.835H351.125V161.872H353.158V159.835H355.19V157.798H357.222V155.762H359.255V151.688H363.319V149.652H365.351V147.615H369.416V145.578H377.545V147.615H381.61V159.835H379.578V163.908H377.545V170.018H375.513V174.092H373.481V180.202H371.448V184.275H369.416V188.349H375.513V186.312H379.578V184.275H381.61V182.239H383.642V184.275H381.61V186.312H379.578V188.349H377.545V190.385H375.513V192.422H371.448V194.459H361.287V182.239H363.319V178.165H365.351V172.055H367.384V167.982H369.416V161.872H371.448V157.798H373.481V153.725H371.448V151.688H365.351V153.725H363.319V155.762H359.255V157.798H357.222V161.872H355.19V163.908H353.158V165.945H351.125V167.982H349.093V174.092H347.061V178.165H345.028V184.275H342.996V190.385H340.964V194.459H330.802V192.422H332.835V188.349H334.867V182.239H336.899V178.165H338.932V172.055H340.964V165.945H342.996V161.872H345.028V151.688H338.932V153.725H334.867V155.762H332.835V157.798H330.802V159.835H328.77V161.872H326.738V165.945H324.705V167.982H322.673V172.055H320.641V178.165H318.609V182.239H316.576V188.349H314.544V192.422H312.512Z" fill="white"/>
<path d="M393.784 192.422V194.459H385.655V190.385H387.687V186.312H389.719V180.202H391.751V176.129H393.784V170.018H395.816V163.908H397.848V159.835H399.881V151.688H397.848V149.652H395.816V147.615H405.977V145.578H412.074V151.688H410.042V155.762H408.01V157.798H405.977V161.872H403.945V163.908H405.977V161.872H408.01V157.798H410.042V155.762H412.074V153.725H414.107V151.688H416.139V149.652H420.204V147.615H422.236V145.578H432.397V147.615H434.43V149.652H436.462V155.762H434.43V159.835H432.397V161.872H434.43V159.835H436.462V157.798H438.494V155.762H440.527V151.688H444.591V149.652H446.623V147.615H450.688V145.578H458.817V147.615H462.882V159.835H460.849V163.908H458.817V170.018H456.785V174.092H454.753V180.202H452.72V184.275H450.688V188.349H456.785V186.312H460.849V184.275H462.882V182.239H464.914V184.275H462.882V186.312H460.849V188.349H458.817V190.385H456.785V192.422H452.72V194.459H442.559V182.239H444.591V178.165H446.623V172.055H448.656V167.982H450.688V161.872H452.72V157.798H454.753V153.725H452.72V151.688H446.623V153.725H444.591V155.762H440.527V157.798H438.494V161.872H436.462V163.908H434.43V165.945H432.397V167.982H430.365V174.092H428.333V178.165H426.3V184.275H424.268V190.385H422.236V194.459H412.074V192.422H414.107V188.349H416.139V182.239H418.171V178.165H420.204V172.055H422.236V165.945H424.268V161.872H426.3V151.688H420.204V153.725H416.139V155.762H414.107V157.798H412.074V159.835H410.042V161.872H408.01V165.945H405.977V167.982H403.945V172.055H401.913V178.165H399.881V182.239H397.848V188.349H395.816V192.422H393.784Z" fill="white"/>
<path d="M495.379 192.422V194.459H479.12V192.422H475.056V190.385H473.023V188.349H470.991V182.239H468.959V174.092H470.991V165.945H473.023V161.872H475.056V157.798H477.088V155.762H479.12V153.725H481.153V151.688H483.185V149.652H487.249V147.615H491.314V145.578H503.508V147.615H507.572V149.652H509.605V151.688H511.637V153.725H513.669V161.872H515.702V165.945H513.669V174.092H511.637V180.202H509.605V182.239H507.572V184.275H505.54V188.349H501.476V190.385H499.443V192.422H495.379ZM481.153 190.385H493.346V188.349H495.379V186.312H497.411V184.275H499.443V180.202H501.476V176.129H503.508V167.982H505.54V155.762H503.508V151.688H501.476V149.652H493.346V151.688H491.314V153.725H487.249V157.798H485.217V159.835H483.185V165.945H481.153V172.055H479.12V186.312H481.153V190.385Z" fill="white"/>
<path d="M570.574 133.358V127.248H568.541V125.212H566.509V123.175H578.703V121.138H582.767V125.212H580.735V129.285H578.703V135.395H576.671V141.505H574.638V145.578H572.606V151.688H570.574V155.762H568.541V161.872H566.509V165.945H564.477V172.055H562.444V176.129H560.412V182.239H558.38V188.349H564.477V186.312H566.509V184.275H568.541V182.239H570.574V184.275H568.541V186.312H566.509V190.385H562.444V192.422H560.412V194.459H550.251V192.422H548.218V188.349H550.251V184.275H552.283V182.239H550.251V184.275H548.218V186.312H546.186V188.349H544.154V190.385H542.122V192.422H538.057V194.459H525.863V192.422H523.831V190.385H521.799V186.312H519.766V172.055H521.799V167.982H523.831V163.908H525.863V159.835H527.895V157.798H529.928V155.762H531.96V153.725H533.992V151.688H536.025V149.652H540.089V147.615H544.154V145.578H556.348V147.615H560.412V149.652H564.477V143.542H566.509V139.468H568.541V133.358H570.574ZM531.96 188.349H542.122V186.312H544.154V184.275H546.186V182.239H548.218V180.202H550.251V178.165H552.283V174.092H554.315V170.018H556.348V163.908H558.38V159.835H560.412V153.725H558.38V151.688H556.348V149.652H546.186V151.688H544.154V153.725H540.089V155.762H538.057V159.835H536.025V161.872H533.992V165.945H531.96V172.055H529.928V186.312H531.96V188.349ZM554.315 178.165H552.283V180.202H554.315V178.165Z" fill="white"/>
<path d="M596.95 135.395V131.322H598.982V127.248H601.014V125.212H611.176V127.248H609.144V131.322H607.111V135.395H596.95ZM588.821 192.422V194.459H578.659V192.422H576.627V184.275H578.659V180.202H580.691V174.092H582.724V170.018H584.756V163.908H586.788V159.835H588.821V151.688H586.788V149.652H584.756V147.615H594.918V145.578H601.014V151.688H598.982V155.762H596.95V159.835H594.918V165.945H592.885V172.055H590.853V176.129H588.821V182.239H586.788V188.349H592.885V190.385H590.853V192.422H588.821ZM594.918 188.349H592.885V186.312H594.918V184.275H596.95V182.239H598.982V184.275H596.95V186.312H594.918V188.349Z" fill="white"/>
<path d="M629.494 151.688V153.725H627.462V157.798H625.43V163.908H623.397V167.982H621.365V174.092H619.333V180.202H617.301V186.312H619.333V188.349H623.397V186.312H627.462V184.275H629.494V186.312H627.462V188.349H625.43V190.385H623.397V192.422H621.365V194.459H609.171V192.422H607.139V182.239H609.171V176.129H611.204V172.055H613.236V165.945H615.268V161.872H617.301V155.762H619.333V149.652H613.236V147.615H617.301V145.578H621.365V143.542H623.397V141.505H625.43V139.468H627.462V137.432H631.527V135.395H633.559V133.358H635.591V137.432H633.559V141.505H631.527V145.578H643.72V149.652H625.43V151.688H629.494Z" fill="white"/>
<path d="M641.672 214.825V216.862H627.446V214.825H625.414V208.715H627.446V206.679H629.478V204.642H631.511V206.679H635.575V212.789H633.543V214.825H635.575V212.789H641.672V210.752H645.737V208.715H647.769V206.679H649.801V204.642H651.834V202.605H653.866V200.569H655.898V186.312H653.866V167.982H651.834V155.762H649.801V151.688H647.769V147.615H653.866V145.578H657.931V147.615H659.963V157.798H661.995V172.055H664.028V190.385H661.995V192.422H664.028V190.385H666.06V188.349H668.092V186.312H670.124V182.239H672.157V180.202H674.189V176.129H676.221V172.055H678.254V167.982H680.286V161.872H682.318V153.725H678.254V147.615H680.286V145.578H686.383V147.615H688.415V161.872H686.383V167.982H684.35V172.055H682.318V174.092H680.286V178.165H678.254V180.202H676.221V184.275H674.189V186.312H672.157V190.385H670.124V192.422H668.092V194.459H666.06V196.495H664.028V198.532H661.995V200.569H659.963V202.605H657.931V204.642H655.898V206.679H653.866V208.715H651.834V210.752H649.801V212.789H645.737V214.825H641.672Z" fill="white"/>
<path d="M854.182 123.909H856.364V128.273H862.909V123.909H865.091V137H862.909V130.455H856.364V137H854.182V123.909ZM858.545 119.545H860.727V121.727H858.545V119.545ZM856.364 121.727H858.545V123.909H856.364V121.727ZM860.727 121.727H862.909V123.909H860.727V121.727ZM893.472 134.818V137H886.926V134.818H893.472ZM886.926 134.818H884.744V132.636H886.926V134.818ZM893.472 123.909V126.091H886.926V123.909H893.472ZM884.744 126.091H886.926V128.273H884.744V126.091ZM886.926 128.273H893.472V130.455H886.926V128.273ZM893.472 130.455H895.653V134.818H893.472V130.455ZM893.472 126.091H895.653V128.273H893.472V126.091ZM904.389 126.091H900.026V123.909H906.571V134.818H910.935V137H900.026V134.818H904.389V126.091ZM904.389 119.545H906.571V121.727H904.389V119.545ZM915.307 123.909H917.489V126.091H919.67V128.273H917.489V137H915.307V123.909ZM919.67 123.909H924.034V126.091H919.67V123.909ZM924.034 126.091H926.216V137H924.034V126.091ZM932.77 123.909H937.134V126.091H932.77V123.909ZM930.588 126.091H932.77V134.818H930.588V126.091ZM932.77 134.818H937.134V137H932.77V134.818ZM932.77 139.182H939.315V141.364H932.77V139.182ZM937.134 132.636H939.315V128.273H937.134V126.091H939.315V123.909H941.497V139.182H939.315V134.818H937.134V132.636ZM950.233 121.727H945.869V119.545H952.415V134.818H956.778V137H945.869V134.818H950.233V121.727ZM963.332 123.909H969.878V126.091H963.332V123.909ZM961.151 126.091H963.332V128.273H969.878V126.091H972.06V130.455H963.332V134.818H961.151V126.091ZM963.332 134.818H969.878V137H963.332V134.818ZM969.878 132.636H972.06V134.818H969.878V132.636ZM991.713 119.545H993.895V126.091H996.077V128.273H993.895V132.636H996.077V134.818H993.895V137H991.713V119.545ZM996.077 134.818H1000.44V137H996.077V134.818ZM1000.44 126.091H1002.62V134.818H1000.44V126.091ZM996.077 123.909H1000.44V126.091H996.077V123.909ZM1011.36 126.091H1006.99V123.909H1013.54V134.818H1017.9V137H1006.99V134.818H1011.36V126.091ZM1011.36 119.545H1013.54V121.727H1011.36V119.545ZM1022.28 123.909H1024.46V126.091H1026.64V128.273H1024.46V137H1022.28V123.909ZM1026.64 123.909H1031V126.091H1026.64V123.909ZM1031 126.091H1033.18V137H1031V126.091ZM1037.56 130.455H1039.74V134.818H1037.56V130.455ZM1039.74 134.818H1044.1V137H1039.74V134.818ZM1044.1 132.636H1046.28V130.455H1039.74V128.273H1046.28V126.091H1048.47V137H1046.28V134.818H1044.1V132.636ZM1039.74 123.909H1046.28V126.091H1039.74V123.909ZM1057.2 123.909V126.091H1059.38V128.273H1057.2V134.818H1061.57V137H1052.84V134.818H1055.02V126.091H1052.84V123.909H1057.2ZM1063.75 123.909V126.091H1059.38V123.909H1063.75ZM1068.12 123.909H1070.3V130.455H1068.12V123.909ZM1076.85 123.909H1079.03V130.455H1076.85V123.909ZM1072.48 134.818H1074.66V139.182H1072.48V134.818ZM1072.48 139.182V141.364H1068.12V139.182H1072.48ZM1074.66 130.455H1076.85V134.818H1074.66V130.455ZM1070.3 130.455H1072.48V134.818H1070.3V130.455ZM1100.86 119.545H1103.05V123.909H1109.59V126.091H1103.05V134.818H1100.86V126.091H1098.68V123.909H1100.86V119.545ZM1103.05 134.818H1107.41V137H1103.05V134.818ZM1107.41 132.636H1109.59V134.818H1107.41V132.636ZM1116.14 123.909H1122.69V126.091H1116.14V123.909ZM1122.69 126.091H1124.87V134.818H1122.69V126.091ZM1113.96 126.091H1116.14V134.818H1113.96V126.091ZM1116.14 134.818H1122.69V137H1116.14V134.818ZM1144.53 123.909H1146.71V126.091H1148.89V128.273H1146.71V132.636H1148.89V134.818H1146.71V141.364H1144.53V123.909ZM1148.89 123.909H1153.25V126.091H1148.89V123.909ZM1153.25 126.091H1155.43V134.818H1153.25V126.091ZM1148.89 134.818H1153.25V137H1148.89V134.818ZM1161.99 123.909H1168.53V126.091H1161.99V123.909ZM1168.53 126.091H1170.72V134.818H1168.53V126.091ZM1159.81 126.091H1161.99V134.818H1159.81V126.091ZM1161.99 134.818H1168.53V137H1161.99V134.818ZM1175.09 123.909H1177.27V134.818H1175.09V123.909ZM1183.82 123.909H1186V137H1181.63V134.818H1183.82V123.909ZM1181.63 134.818H1179.45V123.909H1181.63V134.818ZM1177.27 134.818H1179.45V137H1177.27V134.818ZM1192.55 123.909H1199.1V126.091H1192.55V123.909ZM1190.37 126.091H1192.55V128.273H1199.1V126.091H1201.28V130.455H1192.55V134.818H1190.37V126.091ZM1192.55 134.818H1199.1V137H1192.55V134.818ZM1199.1 132.636H1201.28V134.818H1199.1V132.636ZM1210.01 123.909V126.091H1212.2V128.273H1210.01V134.818H1214.38V137H1205.65V134.818H1207.83V126.091H1205.65V123.909H1210.01ZM1216.56 123.909V126.091H1212.2V123.909H1216.56ZM856.364 150.545H858.545V154.909H865.091V157.091H858.545V165.818H856.364V157.091H854.182V154.909H856.364V150.545ZM858.545 165.818H862.909V168H858.545V165.818ZM862.909 163.636H865.091V165.818H862.909V163.636ZM869.463 150.545H871.645V157.091H873.827V159.273H871.645V168H869.463V150.545ZM878.19 157.091H880.372V168H878.19V157.091ZM873.827 154.909H878.19V157.091H873.827V154.909ZM886.926 154.909H893.472V157.091H886.926V154.909ZM884.744 157.091H886.926V159.273H893.472V157.091H895.653V161.455H886.926V165.818H884.744V157.091ZM886.926 165.818H893.472V168H886.926V165.818ZM893.472 163.636H895.653V165.818H893.472V163.636ZM924.034 165.818V168H917.489V165.818H924.034ZM917.489 165.818H915.307V163.636H917.489V165.818ZM924.034 154.909V157.091H917.489V154.909H924.034ZM915.307 157.091H917.489V159.273H915.307V157.091ZM917.489 159.273H924.034V161.455H917.489V159.273ZM924.034 161.455H926.216V165.818H924.034V161.455ZM924.034 157.091H926.216V159.273H924.034V157.091ZM932.77 154.909H939.315V157.091H932.77V154.909ZM939.315 157.091H941.497V165.818H939.315V157.091ZM930.588 157.091H932.77V165.818H930.588V157.091ZM932.77 165.818H939.315V168H932.77V165.818ZM945.869 154.909H948.051V161.455H945.869V154.909ZM954.597 154.909H956.778V161.455H954.597V154.909ZM950.233 165.818H948.051V161.455H950.233V165.818ZM950.233 165.818H952.415V168H950.233V165.818ZM952.415 161.455H954.597V165.818H952.415V161.455ZM963.332 154.909H969.878V157.091H963.332V154.909ZM961.151 157.091H963.332V159.273H969.878V157.091H972.06V161.455H963.332V165.818H961.151V157.091ZM963.332 165.818H969.878V168H963.332V165.818ZM969.878 163.636H972.06V165.818H969.878V163.636ZM980.795 154.909V157.091H982.977V159.273H980.795V165.818H985.159V168H976.432V165.818H978.614V157.091H976.432V154.909H980.795ZM987.341 154.909V157.091H982.977V154.909H987.341ZM993.895 154.909H1000.44V157.091H993.895V154.909ZM991.713 157.091H993.895V159.273H1000.44V157.091H1002.62V161.455H993.895V165.818H991.713V157.091ZM993.895 165.818H1000.44V168H993.895V165.818ZM1000.44 163.636H1002.62V165.818H1000.44V163.636ZM1011.36 157.091H1006.99V154.909H1013.54V165.818H1017.9V168H1006.99V165.818H1011.36V157.091ZM1011.36 150.545H1013.54V152.727H1011.36V150.545ZM1024.46 154.909H1028.82V157.091H1024.46V154.909ZM1022.28 157.091H1024.46V165.818H1022.28V157.091ZM1024.46 165.818H1028.82V168H1024.46V165.818ZM1024.46 170.182H1031V172.364H1024.46V170.182ZM1028.82 163.636H1031V159.273H1028.82V157.091H1031V154.909H1033.18V170.182H1031V165.818H1028.82V163.636ZM1037.56 154.909H1039.74V157.091H1041.92V159.273H1039.74V168H1037.56V154.909ZM1041.92 154.909H1046.28V157.091H1041.92V154.909ZM1046.28 157.091H1048.47V168H1046.28V157.091ZM1068.12 150.545H1070.3V157.091H1072.48V159.273H1070.3V163.636H1072.48V165.818H1070.3V168H1068.12V150.545ZM1072.48 165.818H1076.85V168H1072.48V165.818ZM1076.85 157.091H1079.03V165.818H1076.85V157.091ZM1072.48 154.909H1076.85V157.091H1072.48V154.909ZM1083.4 161.455H1085.58V165.818H1083.4V161.455ZM1085.58 165.818H1089.95V168H1085.58V165.818ZM1089.95 163.636H1092.13V161.455H1085.58V159.273H1092.13V157.091H1094.31V168H1092.13V165.818H1089.95V163.636ZM1085.58 154.909H1092.13V157.091H1085.58V154.909ZM1100.86 154.909H1107.41V157.091H1100.86V154.909ZM1098.68 157.091H1100.86V165.818H1098.68V157.091ZM1100.86 165.818H1107.41V168H1100.86V165.818ZM1107.41 157.091H1109.59V159.273H1107.41V157.091ZM1107.41 163.636H1109.59V165.818H1107.41V163.636ZM1113.96 150.545H1116.14V161.455H1118.33V159.273H1120.51V163.636H1116.14V168H1113.96V150.545ZM1122.69 154.909H1124.87V157.091H1122.69V154.909ZM1120.51 157.091H1122.69V159.273H1120.51V157.091ZM1120.51 163.636H1122.69V165.818H1120.51V163.636ZM1122.69 165.818H1124.87V168H1122.69V165.818ZM1129.24 150.545H1131.43V157.091H1133.61V159.273H1131.43V163.636H1133.61V165.818H1131.43V168H1129.24V150.545ZM1133.61 165.818H1137.97V168H1133.61V165.818ZM1137.97 157.091H1140.15V165.818H1137.97V157.091ZM1133.61 154.909H1137.97V157.091H1133.61V154.909ZM1146.71 154.909H1153.25V157.091H1146.71V154.909ZM1153.25 157.091H1155.43V165.818H1153.25V157.091ZM1144.53 157.091H1146.71V165.818H1144.53V157.091ZM1146.71 165.818H1153.25V168H1146.71V165.818ZM1159.81 154.909H1161.99V157.091H1164.17V159.273H1161.99V168H1159.81V154.909ZM1164.17 154.909H1168.53V157.091H1164.17V154.909ZM1168.53 157.091H1170.72V168H1168.53V157.091ZM1177.27 154.909H1183.82V157.091H1177.27V154.909ZM1175.09 157.091H1177.27V159.273H1183.82V157.091H1186V161.455H1177.27V165.818H1175.09V157.091ZM1177.27 165.818H1183.82V168H1177.27V165.818ZM1183.82 163.636H1186V165.818H1183.82V163.636ZM1207.83 154.909H1214.38V157.091H1207.83V154.909ZM1214.38 157.091H1216.56V165.818H1214.38V157.091ZM1205.65 157.091H1207.83V165.818H1205.65V157.091ZM1207.83 165.818H1214.38V168H1207.83V165.818ZM1223.11 157.091H1220.93V154.909H1223.11V152.727H1225.3V154.909H1231.84V157.091H1225.3V165.818H1229.66V168H1220.93V165.818H1223.11V157.091ZM1225.3 150.545H1231.84V152.727H1225.3V150.545ZM854.182 185.909H856.364V192.455H854.182V185.909ZM862.909 185.909H865.091V192.455H862.909V185.909ZM858.545 196.818H860.727V201.182H858.545V196.818ZM858.545 201.182V203.364H854.182V201.182H858.545ZM860.727 192.455H862.909V196.818H860.727V192.455ZM856.364 192.455H858.545V196.818H856.364V192.455ZM871.645 185.909H878.19V188.091H871.645V185.909ZM878.19 188.091H880.372V196.818H878.19V188.091ZM869.463 188.091H871.645V196.818H869.463V188.091ZM871.645 196.818H878.19V199H871.645V196.818ZM884.744 185.909H886.926V196.818H884.744V185.909ZM886.926 196.818H891.29V199H886.926V196.818ZM893.472 185.909H895.653V199H893.472V196.818H891.29V194.636H893.472V185.909ZM904.389 185.909V188.091H906.571V190.273H904.389V196.818H908.753V199H900.026V196.818H902.207V188.091H900.026V185.909H904.389ZM910.935 185.909V188.091H906.571V185.909H910.935ZM939.315 181.545H941.497V199H939.315V196.818H937.134V194.636H939.315V190.273H937.134V188.091H939.315V181.545ZM937.134 196.818V199H932.77V196.818H937.134ZM932.77 196.818H930.588V188.091H932.77V196.818ZM937.134 188.091H932.77V185.909H937.134V188.091ZM950.233 188.091H945.869V185.909H952.415V196.818H956.778V199H945.869V196.818H950.233V188.091ZM950.233 181.545H952.415V183.727H950.233V181.545ZM963.332 185.909H967.696V188.091H963.332V185.909ZM961.151 188.091H963.332V196.818H961.151V188.091ZM963.332 196.818H967.696V199H963.332V196.818ZM963.332 201.182H969.878V203.364H963.332V201.182ZM967.696 194.636H969.878V190.273H967.696V188.091H969.878V185.909H972.06V201.182H969.878V196.818H967.696V194.636ZM980.795 188.091H976.432V185.909H982.977V196.818H987.341V199H976.432V196.818H980.795V188.091ZM980.795 181.545H982.977V183.727H980.795V181.545ZM993.895 181.545H996.077V185.909H1002.62V188.091H996.077V196.818H993.895V188.091H991.713V185.909H993.895V181.545ZM996.077 196.818H1000.44V199H996.077V196.818ZM1000.44 194.636H1002.62V196.818H1000.44V194.636ZM1006.99 192.455H1009.18V196.818H1006.99V192.455ZM1009.18 196.818H1013.54V199H1009.18V196.818ZM1013.54 194.636H1015.72V192.455H1009.18V190.273H1015.72V188.091H1017.9V199H1015.72V196.818H1013.54V194.636ZM1009.18 185.909H1015.72V188.091H1009.18V185.909ZM1026.64 183.727H1022.28V181.545H1028.82V196.818H1033.18V199H1022.28V196.818H1026.64V183.727ZM1057.2 188.091H1052.84V185.909H1059.38V196.818H1063.75V199H1052.84V196.818H1057.2V188.091ZM1057.2 181.545H1059.38V183.727H1057.2V181.545ZM1068.12 185.909H1070.3V188.091H1072.48V190.273H1070.3V199H1068.12V185.909ZM1072.48 185.909H1076.85V188.091H1072.48V185.909ZM1076.85 188.091H1079.03V199H1076.85V188.091ZM1085.58 188.091H1083.4V185.909H1085.58V183.727H1087.76V185.909H1094.31V188.091H1087.76V196.818H1092.13V199H1083.4V196.818H1085.58V188.091ZM1087.76 181.545H1094.31V183.727H1087.76V181.545ZM1103.05 185.909V188.091H1105.23V190.273H1103.05V196.818H1107.41V199H1098.68V196.818H1100.86V188.091H1098.68V185.909H1103.05ZM1109.59 185.909V188.091H1105.23V185.909H1109.59ZM1113.96 192.455H1116.14V196.818H1113.96V192.455ZM1116.14 196.818H1120.51V199H1116.14V196.818ZM1120.51 194.636H1122.69V192.455H1116.14V190.273H1122.69V188.091H1124.87V199H1122.69V196.818H1120.51V194.636ZM1116.14 185.909H1122.69V188.091H1116.14V185.909ZM1137.97 196.818V199H1131.43V196.818H1137.97ZM1131.43 196.818H1129.24V194.636H1131.43V196.818ZM1137.97 185.909V188.091H1131.43V185.909H1137.97ZM1129.24 188.091H1131.43V190.273H1129.24V188.091ZM1131.43 190.273H1137.97V192.455H1131.43V190.273ZM1137.97 192.455H1140.15V196.818H1137.97V192.455ZM1137.97 188.091H1140.15V190.273H1137.97V188.091ZM1146.71 181.545H1148.89V185.909H1155.43V188.091H1148.89V196.818H1146.71V188.091H1144.53V185.909H1146.71V181.545ZM1148.89 196.818H1153.25V199H1148.89V196.818ZM1153.25 194.636H1155.43V196.818H1153.25V194.636ZM1164.17 185.909V188.091H1166.35V190.273H1164.17V196.818H1168.53V199H1159.81V196.818H1161.99V188.091H1159.81V185.909H1164.17ZM1170.72 185.909V188.091H1166.35V185.909H1170.72ZM1175.09 185.909H1177.27V196.818H1175.09V185.909ZM1177.27 196.818H1181.63V199H1177.27V196.818ZM1183.82 185.909H1186V199H1183.82V196.818H1181.63V194.636H1183.82V185.909ZM1192.55 185.909H1199.1V188.091H1192.55V185.909ZM1190.37 188.091H1192.55V196.818H1190.37V188.091ZM1192.55 196.818H1199.1V199H1192.55V196.818ZM1199.1 188.091H1201.28V190.273H1199.1V188.091ZM1199.1 194.636H1201.28V196.818H1199.1V194.636ZM1207.83 181.545H1210.01V185.909H1216.56V188.091H1210.01V196.818H1207.83V188.091H1205.65V185.909H1207.83V181.545ZM1210.01 196.818H1214.38V199H1210.01V196.818ZM1214.38 194.636H1216.56V196.818H1214.38V194.636ZM1220.93 185.909H1223.11V196.818H1220.93V185.909ZM1223.11 196.818H1227.48V199H1223.11V196.818ZM1229.66 185.909H1231.84V199H1229.66V196.818H1227.48V194.636H1229.66V185.909ZM1240.58 185.909V188.091H1242.76V190.273H1240.58V196.818H1244.94V199H1236.21V196.818H1238.39V188.091H1236.21V185.909H1240.58ZM1247.12 185.909V188.091H1242.76V185.909H1247.12ZM1253.68 185.909H1260.22V188.091H1253.68V185.909ZM1251.49 188.091H1253.68V190.273H1260.22V188.091H1262.4V192.455H1253.68V196.818H1251.49V188.091ZM1253.68 196.818H1260.22V199H1253.68V196.818ZM1260.22 194.636H1262.4V196.818H1260.22V194.636ZM1271.14 194.636H1273.32V199H1271.14V194.636Z" fill="white"/>
</svg>
