<svg width="384" height="384" viewBox="0 0 384 384" fill="none" xmlns="http://www.w3.org/2000/svg">
<path d="M117 279.111V274.133H121.978V269.156H136.911V264.178H141.889V259.2H146.867V249.244H151.844V234.311H156.822V224.356H161.8V209.422H166.778V199.467H171.756V184.533H176.733V169.6H181.711V159.644H186.689V144.711H191.667V134.756H196.644V114.844H181.711V109.867H176.733V104.889H251.4V109.867H246.422V114.844H231.489V119.822H226.511V124.8H221.533V134.756H216.556V144.711H211.578V159.644H206.6V174.578H201.622V184.533H196.644V194.489H191.667V199.467H186.689V204.444H191.667V199.467H196.644V194.489H206.6V189.511H211.578V184.533H216.556V179.556H226.511V174.578H231.489V169.6H236.467V164.622H246.422V159.644H251.4V154.667H256.378V149.689H266.333V144.711H271.311V139.733H276.289V134.756H286.244V129.778H291.222V124.8H296.2V114.844H286.244V104.889H341V114.844H326.067V119.822H316.111V124.8H306.156V129.778H301.178V134.756H291.222V139.733H286.244V144.711H281.267V149.689H271.311V154.667H266.333V159.644H261.356V164.622H251.4V169.6H246.422V174.578H241.444V184.533H246.422V199.467H251.4V214.4H256.378V224.356H261.356V239.289H266.333V249.244H271.311V264.178H276.289V269.156H286.244V279.111H246.422V269.156H241.444V254.222H236.467V239.289H231.489V224.356H226.511V214.4H221.533V199.467H216.556V194.489H211.578V199.467H206.6V204.444H201.622V209.422H191.667V214.4H186.689V224.356H181.711V239.289H176.733V249.244H171.756V269.156H186.689V274.133H191.667V279.111H117Z" fill="white"/>
<path d="M116.369 139.982H111.405V144.946H121.334V139.982H136.229V135.017H146.159V130.052H156.089V139.982H151.124V144.946H136.229V149.911H126.299V154.876H116.369V159.841H121.334V164.806H126.299V169.771H131.264V174.736H136.229V184.666H126.299V179.701H121.334V174.736H116.369V169.771H111.405V164.806H106.44V159.841H111.405V144.946H106.44V130.052H111.405V115.157H116.369V105.227H126.299V115.157H121.334V130.052H116.369V139.982ZM101.475 139.982V149.911H86.5798V144.946H81.6149V139.982H76.6499V135.017H71.685V125.087H81.6149V130.052H86.5798V135.017H91.5447V139.982H101.475ZM96.5097 164.806H86.5798V169.771H71.685V174.736H61.7551V179.701H56.7901V174.736H51.8252V169.771H56.7901V164.806H71.685V159.841H81.6149V154.876H96.5097V164.806ZM96.5097 164.806H106.44V169.771H101.475V179.701H96.5097V194.596H91.5447V204.526H81.6149V194.596H86.5798V184.666H91.5447V169.771H96.5097V164.806Z" fill="#F6441C"/>
</svg>
